<svg width="1078" height="320" viewBox="0 0 1078 320" fill="none" xmlns="http://www.w3.org/2000/svg">
<rect x="0.611755" width="1076.71" height="320" fill="#323232"/>
<mask id="mask0_105_56" style="mask-type:alpha" maskUnits="userSpaceOnUse" x="0" y="0" width="1078" height="320">
<path d="M1077.32 0H0.611755V320H1077.32V0Z" fill="#3835CB"/>
</mask>
<g mask="url(#mask0_105_56)">
<path d="M174.729 210.338C-16.5176 113.962 -95.0745 275.593 -110.447 368.456V379.75L-131.153 495.515L1248.61 463.515C1247.98 402.025 1226.59 265.303 1146.02 210.338C1065.46 155.374 919.2 292.848 856.141 368.456C708.69 355.907 365.977 306.715 174.729 210.338Z" fill="#3936CC"/>
<path d="M972.265 30.1422C994.853 75.3187 1051.32 91.0049 1076.74 93.201V-30.0931C1035.01 -30.7205 955.7 -19.5519 972.265 30.1422Z" fill="#3936CC"/>
<path d="M118.544 215V125.4H156.688C161.808 125.4 166.501 126.68 170.768 129.24C175.12 131.715 178.576 135.128 181.136 139.48C183.696 143.747 184.976 148.568 184.976 153.944C184.976 158.808 183.696 163.331 181.136 167.512C178.576 171.693 175.163 175.064 170.896 177.624C166.629 180.099 161.893 181.336 156.688 181.336H132.368V215H118.544ZM171.792 215L149.008 174.552L163.216 171.352L188.56 215.128L171.792 215ZM132.368 168.024H157.968C160.443 168.024 162.661 167.427 164.624 166.232C166.587 164.952 168.123 163.245 169.232 161.112C170.341 158.893 170.896 156.461 170.896 153.816C170.896 150.829 170.171 148.227 168.72 146.008C167.355 143.704 165.392 141.912 162.832 140.632C160.357 139.352 157.541 138.712 154.384 138.712H132.368V168.024ZM233.076 216.28C226.164 216.28 220.02 214.829 214.644 211.928C209.353 208.941 205.172 204.888 202.1 199.768C199.113 194.648 197.62 188.76 197.62 182.104C197.62 176.813 198.473 171.992 200.18 167.64C201.887 163.288 204.233 159.533 207.22 156.376C210.292 153.133 213.919 150.659 218.1 148.952C222.367 147.16 226.975 146.264 231.924 146.264C236.276 146.264 240.329 147.117 244.084 148.824C247.839 150.445 251.081 152.707 253.812 155.608C256.628 158.509 258.761 161.965 260.212 165.976C261.748 169.901 262.473 174.211 262.388 178.904L262.26 184.536H207.348L204.404 174.04H250.868L248.948 176.216V173.144C248.692 170.328 247.753 167.811 246.132 165.592C244.511 163.373 242.463 161.624 239.988 160.344C237.513 159.064 234.825 158.424 231.924 158.424C227.316 158.424 223.433 159.32 220.276 161.112C217.119 162.819 214.729 165.379 213.108 168.792C211.487 172.12 210.676 176.259 210.676 181.208C210.676 185.901 211.657 189.997 213.62 193.496C215.583 196.909 218.356 199.555 221.94 201.432C225.524 203.309 229.663 204.248 234.356 204.248C237.684 204.248 240.756 203.693 243.572 202.584C246.473 201.475 249.588 199.469 252.916 196.568L259.572 205.912C257.524 207.96 255.007 209.752 252.02 211.288C249.119 212.824 246.004 214.061 242.676 215C239.433 215.853 236.233 216.28 233.076 216.28ZM316.524 215V171.224C316.524 167.469 315.159 164.44 312.428 162.136C309.783 159.747 306.412 158.552 302.316 158.552C298.561 158.552 295.148 159.32 292.076 160.856C289.089 162.392 286.359 164.739 283.884 167.896L275.308 159.32C279.319 154.968 283.628 151.725 288.236 149.592C292.929 147.459 297.964 146.392 303.34 146.392C308.46 146.392 312.897 147.245 316.652 148.952C320.407 150.659 323.308 153.176 325.356 156.504C327.404 159.747 328.428 163.715 328.428 168.408V215H316.524ZM296.428 216.28C292.076 216.28 288.193 215.427 284.78 213.72C281.367 212.013 278.636 209.667 276.588 206.68C274.625 203.608 273.644 200.024 273.644 195.928C273.644 192.344 274.284 189.187 275.564 186.456C276.844 183.725 278.721 181.464 281.196 179.672C283.756 177.88 286.913 176.515 290.668 175.576C294.508 174.637 298.903 174.168 303.852 174.168H322.54L321.388 184.664H302.188C299.628 184.664 297.324 184.92 295.276 185.432C293.313 185.859 291.607 186.584 290.156 187.608C288.791 188.547 287.767 189.699 287.084 191.064C286.401 192.344 286.06 193.88 286.06 195.672C286.06 197.549 286.529 199.213 287.468 200.664C288.407 202.029 289.687 203.096 291.308 203.864C292.929 204.632 294.807 205.016 296.94 205.016C300.012 205.016 302.913 204.504 305.644 203.48C308.46 202.371 310.935 200.877 313.068 199C315.287 197.123 316.993 195.032 318.188 192.728L321.26 201.304C319.468 204.291 317.249 206.893 314.604 209.112C311.959 211.331 309.1 213.08 306.028 214.36C302.956 215.64 299.756 216.28 296.428 216.28ZM373.635 216.28C367.406 216.28 361.816 214.744 356.867 211.672C352.003 208.6 348.12 204.419 345.219 199.128C342.403 193.837 340.995 187.907 340.995 181.336C340.995 174.765 342.403 168.835 345.219 163.544C348.12 158.253 352.003 154.072 356.867 151C361.816 147.928 367.406 146.392 373.635 146.392C379.608 146.392 385.027 147.629 389.891 150.104C394.84 152.493 398.595 155.779 401.155 159.96L393.859 168.92C392.494 166.957 390.744 165.165 388.611 163.544C386.478 161.923 384.216 160.643 381.827 159.704C379.438 158.765 377.134 158.296 374.915 158.296C370.819 158.296 367.15 159.32 363.907 161.368C360.75 163.331 358.232 166.061 356.355 169.56C354.478 173.059 353.539 176.984 353.539 181.336C353.539 185.688 354.52 189.613 356.483 193.112C358.446 196.525 361.048 199.256 364.291 201.304C367.534 203.352 371.118 204.376 375.043 204.376C377.347 204.376 379.566 203.992 381.699 203.224C383.918 202.456 386.051 201.304 388.099 199.768C390.147 198.232 392.067 196.355 393.859 194.136L401.155 203.096C398.424 206.936 394.499 210.093 389.379 212.568C384.344 215.043 379.096 216.28 373.635 216.28ZM421.911 215V130.648H435.095V215H421.911ZM407.959 160.6V147.8H450.711V160.6H407.959ZM501.919 215V125.4H515.743V215H501.919ZM508.063 176.856V163.544H554.271V176.856H508.063ZM508.063 138.712V125.4H560.031V138.712H508.063ZM577.767 215V147.8H590.951V215H577.767ZM584.167 132.952C581.351 132.952 579.175 132.227 577.639 130.776C576.103 129.325 575.335 127.277 575.335 124.632C575.335 122.157 576.103 120.152 577.639 118.616C579.26 117.08 581.436 116.312 584.167 116.312C586.983 116.312 589.159 117.037 590.695 118.488C592.231 119.939 592.999 121.987 592.999 124.632C592.999 127.107 592.188 129.112 590.567 130.648C589.031 132.184 586.898 132.952 584.167 132.952ZM611.216 215V147.8H624.4V161.624L622.096 163.16C622.949 160.173 624.613 157.443 627.088 154.968C629.563 152.408 632.507 150.36 635.92 148.824C639.333 147.203 642.832 146.392 646.416 146.392C651.536 146.392 655.803 147.416 659.216 149.464C662.629 151.427 665.189 154.456 666.896 158.552C668.603 162.648 669.456 167.811 669.456 174.04V215H656.272V174.936C656.272 171.096 655.76 167.939 654.736 165.464C653.712 162.904 652.133 161.069 650 159.96C647.867 158.765 645.221 158.253 642.064 158.424C639.504 158.424 637.157 158.851 635.024 159.704C632.891 160.472 631.013 161.581 629.392 163.032C627.856 164.483 626.619 166.189 625.68 168.152C624.827 170.029 624.4 172.077 624.4 174.296V215H617.872C616.763 215 615.653 215 614.544 215C613.435 215 612.325 215 611.216 215ZM727.149 215V171.224C727.149 167.469 725.784 164.44 723.053 162.136C720.408 159.747 717.037 158.552 712.941 158.552C709.186 158.552 705.773 159.32 702.701 160.856C699.714 162.392 696.984 164.739 694.509 167.896L685.933 159.32C689.944 154.968 694.253 151.725 698.861 149.592C703.554 147.459 708.589 146.392 713.965 146.392C719.085 146.392 723.522 147.245 727.277 148.952C731.032 150.659 733.933 153.176 735.981 156.504C738.029 159.747 739.053 163.715 739.053 168.408V215H727.149ZM707.053 216.28C702.701 216.28 698.818 215.427 695.405 213.72C691.992 212.013 689.261 209.667 687.213 206.68C685.25 203.608 684.269 200.024 684.269 195.928C684.269 192.344 684.909 189.187 686.189 186.456C687.469 183.725 689.346 181.464 691.821 179.672C694.381 177.88 697.538 176.515 701.293 175.576C705.133 174.637 709.528 174.168 714.477 174.168H733.165L732.013 184.664H712.813C710.253 184.664 707.949 184.92 705.901 185.432C703.938 185.859 702.232 186.584 700.781 187.608C699.416 188.547 698.392 189.699 697.709 191.064C697.026 192.344 696.685 193.88 696.685 195.672C696.685 197.549 697.154 199.213 698.093 200.664C699.032 202.029 700.312 203.096 701.933 203.864C703.554 204.632 705.432 205.016 707.565 205.016C710.637 205.016 713.538 204.504 716.269 203.48C719.085 202.371 721.56 200.877 723.693 199C725.912 197.123 727.618 195.032 728.813 192.728L731.885 201.304C730.093 204.291 727.874 206.893 725.229 209.112C722.584 211.331 719.725 213.08 716.653 214.36C713.581 215.64 710.381 216.28 707.053 216.28ZM755.716 215V147.8H768.9V161.624L766.596 163.16C767.449 160.173 769.113 157.443 771.588 154.968C774.063 152.408 777.007 150.36 780.42 148.824C783.833 147.203 787.332 146.392 790.916 146.392C796.036 146.392 800.303 147.416 803.716 149.464C807.129 151.427 809.689 154.456 811.396 158.552C813.103 162.648 813.956 167.811 813.956 174.04V215H800.772V174.936C800.772 171.096 800.26 167.939 799.236 165.464C798.212 162.904 796.633 161.069 794.5 159.96C792.367 158.765 789.721 158.253 786.564 158.424C784.004 158.424 781.657 158.851 779.524 159.704C777.391 160.472 775.513 161.581 773.892 163.032C772.356 164.483 771.119 166.189 770.18 168.152C769.327 170.029 768.9 172.077 768.9 174.296V215H762.372C761.263 215 760.153 215 759.044 215C757.935 215 756.825 215 755.716 215ZM860.385 216.28C854.156 216.28 848.566 214.744 843.617 211.672C838.753 208.6 834.87 204.419 831.969 199.128C829.153 193.837 827.745 187.907 827.745 181.336C827.745 174.765 829.153 168.835 831.969 163.544C834.87 158.253 838.753 154.072 843.617 151C848.566 147.928 854.156 146.392 860.385 146.392C866.358 146.392 871.777 147.629 876.641 150.104C881.59 152.493 885.345 155.779 887.905 159.96L880.609 168.92C879.244 166.957 877.494 165.165 875.361 163.544C873.228 161.923 870.966 160.643 868.577 159.704C866.188 158.765 863.884 158.296 861.665 158.296C857.569 158.296 853.9 159.32 850.657 161.368C847.5 163.331 844.982 166.061 843.105 169.56C841.228 173.059 840.289 176.984 840.289 181.336C840.289 185.688 841.27 189.613 843.233 193.112C845.196 196.525 847.798 199.256 851.041 201.304C854.284 203.352 857.868 204.376 861.793 204.376C864.097 204.376 866.316 203.992 868.449 203.224C870.668 202.456 872.801 201.304 874.849 199.768C876.897 198.232 878.817 196.355 880.609 194.136L887.905 203.096C885.174 206.936 881.249 210.093 876.129 212.568C871.094 215.043 865.846 216.28 860.385 216.28ZM931.701 216.28C924.789 216.28 918.645 214.829 913.269 211.928C907.978 208.941 903.797 204.888 900.725 199.768C897.738 194.648 896.245 188.76 896.245 182.104C896.245 176.813 897.098 171.992 898.805 167.64C900.512 163.288 902.858 159.533 905.845 156.376C908.917 153.133 912.544 150.659 916.725 148.952C920.992 147.16 925.6 146.264 930.549 146.264C934.901 146.264 938.954 147.117 942.709 148.824C946.464 150.445 949.706 152.707 952.437 155.608C955.253 158.509 957.386 161.965 958.837 165.976C960.373 169.901 961.098 174.211 961.013 178.904L960.885 184.536H905.973L903.029 174.04H949.493L947.573 176.216V173.144C947.317 170.328 946.378 167.811 944.757 165.592C943.136 163.373 941.088 161.624 938.613 160.344C936.138 159.064 933.45 158.424 930.549 158.424C925.941 158.424 922.058 159.32 918.901 161.112C915.744 162.819 913.354 165.379 911.733 168.792C910.112 172.12 909.301 176.259 909.301 181.208C909.301 185.901 910.282 189.997 912.245 193.496C914.208 196.909 916.981 199.555 920.565 201.432C924.149 203.309 928.288 204.248 932.981 204.248C936.309 204.248 939.381 203.693 942.197 202.584C945.098 201.475 948.213 199.469 951.541 196.568L958.197 205.912C956.149 207.96 953.632 209.752 950.645 211.288C947.744 212.824 944.629 214.061 941.301 215C938.058 215.853 934.858 216.28 931.701 216.28Z" fill="white"/>
</g>
</svg>
