<svg width="572" height="170" viewBox="0 0 572 170" fill="none" xmlns="http://www.w3.org/2000/svg">
<rect width="572" height="170" fill="#323232"/>
<mask id="mask0_105_56" style="mask-type:alpha" maskUnits="userSpaceOnUse" x="0" y="0" width="572" height="170">
<path d="M572 0H0V170H572V0Z" fill="#3835CB"/>
</mask>
<g mask="url(#mask0_105_56)">
<path d="M92.5 111.742C-9.1 60.5422 -50.8333 146.409 -59 195.742V201.742L-70 263.242L663 246.242C662.667 213.576 651.3 140.942 608.5 111.742C565.7 82.5422 488 155.576 454.5 195.742C376.167 189.076 194.1 162.942 92.5 111.742Z" fill="#3936CC"/>
<path d="M516.191 16.013C528.191 40.013 558.191 48.3464 571.691 49.513V-15.987C549.524 -16.3203 507.391 -10.387 516.191 16.013Z" fill="#3936CC"/>
<path d="M77.272 109V64.2H96.344C98.904 64.2 101.251 64.84 103.384 66.12C105.56 67.3573 107.288 69.064 108.568 71.24C109.848 73.3733 110.488 75.784 110.488 78.472C110.488 80.904 109.848 83.1653 108.568 85.256C107.288 87.3467 105.581 89.032 103.448 90.312C101.315 91.5493 98.9467 92.168 96.344 92.168H84.184V109H77.272ZM103.896 109L92.504 88.776L99.608 87.176L112.28 109.064L103.896 109ZM84.184 85.512H96.984C98.2213 85.512 99.3307 85.2133 100.312 84.616C101.293 83.976 102.061 83.1227 102.616 82.056C103.171 80.9467 103.448 79.7307 103.448 78.408C103.448 76.9147 103.085 75.6133 102.36 74.504C101.677 73.352 100.696 72.456 99.416 71.816C98.1787 71.176 96.7707 70.856 95.192 70.856H84.184V85.512ZM134.538 109.64C131.082 109.64 128.01 108.915 125.322 107.464C122.677 105.971 120.586 103.944 119.05 101.384C117.557 98.824 116.81 95.88 116.81 92.552C116.81 89.9067 117.237 87.496 118.09 85.32C118.943 83.144 120.117 81.2667 121.61 79.688C123.146 78.0667 124.959 76.8293 127.05 75.976C129.183 75.08 131.487 74.632 133.962 74.632C136.138 74.632 138.165 75.0587 140.042 75.912C141.919 76.7227 143.541 77.8533 144.906 79.304C146.314 80.7547 147.381 82.4827 148.106 84.488C148.874 86.4507 149.237 88.6053 149.194 90.952L149.13 93.768H121.674L120.202 88.52H143.434L142.474 89.608V88.072C142.346 86.664 141.877 85.4053 141.066 84.296C140.255 83.1867 139.231 82.312 137.994 81.672C136.757 81.032 135.413 80.712 133.962 80.712C131.658 80.712 129.717 81.16 128.138 82.056C126.559 82.9093 125.365 84.1893 124.554 85.896C123.743 87.56 123.338 89.6293 123.338 92.104C123.338 94.4507 123.829 96.4987 124.81 98.248C125.791 99.9547 127.178 101.277 128.97 102.216C130.762 103.155 132.831 103.624 135.178 103.624C136.842 103.624 138.378 103.347 139.786 102.792C141.237 102.237 142.794 101.235 144.458 99.784L147.786 104.456C146.762 105.48 145.503 106.376 144.01 107.144C142.559 107.912 141.002 108.531 139.338 109C137.717 109.427 136.117 109.64 134.538 109.64ZM176.262 109V87.112C176.262 85.2347 175.579 83.72 174.214 82.568C172.891 81.3733 171.206 80.776 169.158 80.776C167.281 80.776 165.574 81.16 164.038 81.928C162.545 82.696 161.179 83.8693 159.942 85.448L155.654 81.16C157.659 78.984 159.814 77.3627 162.118 76.296C164.465 75.2293 166.982 74.696 169.67 74.696C172.23 74.696 174.449 75.1227 176.326 75.976C178.203 76.8293 179.654 78.088 180.678 79.752C181.702 81.3733 182.214 83.3573 182.214 85.704V109H176.262ZM166.214 109.64C164.038 109.64 162.097 109.213 160.39 108.36C158.683 107.507 157.318 106.333 156.294 104.84C155.313 103.304 154.822 101.512 154.822 99.464C154.822 97.672 155.142 96.0933 155.782 94.728C156.422 93.3627 157.361 92.232 158.598 91.336C159.878 90.44 161.457 89.7573 163.334 89.288C165.254 88.8187 167.451 88.584 169.926 88.584H179.27L178.694 93.832H169.094C167.814 93.832 166.662 93.96 165.638 94.216C164.657 94.4293 163.803 94.792 163.078 95.304C162.395 95.7733 161.883 96.3493 161.542 97.032C161.201 97.672 161.03 98.44 161.03 99.336C161.03 100.275 161.265 101.107 161.734 101.832C162.203 102.515 162.843 103.048 163.654 103.432C164.465 103.816 165.403 104.008 166.47 104.008C168.006 104.008 169.457 103.752 170.822 103.24C172.23 102.685 173.467 101.939 174.534 101C175.643 100.061 176.497 99.016 177.094 97.864L178.63 102.152C177.734 103.645 176.625 104.947 175.302 106.056C173.979 107.165 172.55 108.04 171.014 108.68C169.478 109.32 167.878 109.64 166.214 109.64ZM204.818 109.64C201.703 109.64 198.908 108.872 196.434 107.336C194.002 105.8 192.06 103.709 190.61 101.064C189.202 98.4187 188.498 95.4533 188.498 92.168C188.498 88.8827 189.202 85.9173 190.61 83.272C192.06 80.6267 194.002 78.536 196.434 77C198.908 75.464 201.703 74.696 204.818 74.696C207.804 74.696 210.514 75.3147 212.946 76.552C215.42 77.7467 217.298 79.3893 218.578 81.48L214.93 85.96C214.247 84.9787 213.372 84.0827 212.306 83.272C211.239 82.4613 210.108 81.8213 208.914 81.352C207.719 80.8827 206.567 80.648 205.458 80.648C203.41 80.648 201.575 81.16 199.954 82.184C198.375 83.1653 197.116 84.5307 196.178 86.28C195.239 88.0293 194.77 89.992 194.77 92.168C194.77 94.344 195.26 96.3067 196.242 98.056C197.223 99.7627 198.524 101.128 200.146 102.152C201.767 103.176 203.559 103.688 205.522 103.688C206.674 103.688 207.783 103.496 208.85 103.112C209.959 102.728 211.026 102.152 212.05 101.384C213.074 100.616 214.034 99.6773 214.93 98.568L218.578 103.048C217.212 104.968 215.25 106.547 212.69 107.784C210.172 109.021 207.548 109.64 204.818 109.64ZM228.956 109V66.824H235.548V109H228.956ZM221.98 81.8V75.4H243.356V81.8H221.98ZM268.96 109V64.2H275.872V109H268.96ZM272.032 89.928V83.272H295.136V89.928H272.032ZM272.032 70.856V64.2H298.016V70.856H272.032ZM306.884 109V75.4H313.476V109H306.884ZM310.084 67.976C308.676 67.976 307.588 67.6133 306.82 66.888C306.052 66.1627 305.668 65.1387 305.668 63.816C305.668 62.5787 306.052 61.576 306.82 60.808C307.63 60.04 308.718 59.656 310.084 59.656C311.492 59.656 312.58 60.0187 313.348 60.744C314.116 61.4693 314.5 62.4933 314.5 63.816C314.5 65.0533 314.094 66.056 313.284 66.824C312.516 67.592 311.449 67.976 310.084 67.976ZM323.608 109V75.4H330.2V82.312L329.048 83.08C329.475 81.5867 330.307 80.2213 331.544 78.984C332.781 77.704 334.253 76.68 335.96 75.912C337.667 75.1013 339.416 74.696 341.208 74.696C343.768 74.696 345.901 75.208 347.608 76.232C349.315 77.2133 350.595 78.728 351.448 80.776C352.301 82.824 352.728 85.4053 352.728 88.52V109H346.136V88.968C346.136 87.048 345.88 85.4693 345.368 84.232C344.856 82.952 344.067 82.0347 343 81.48C341.933 80.8827 340.611 80.6267 339.032 80.712C337.752 80.712 336.579 80.9253 335.512 81.352C334.445 81.736 333.507 82.2907 332.696 83.016C331.928 83.7413 331.309 84.5947 330.84 85.576C330.413 86.5147 330.2 87.5387 330.2 88.648V109H326.936C326.381 109 325.827 109 325.272 109C324.717 109 324.163 109 323.608 109ZM381.575 109V87.112C381.575 85.2347 380.892 83.72 379.527 82.568C378.204 81.3733 376.519 80.776 374.471 80.776C372.593 80.776 370.887 81.16 369.351 81.928C367.857 82.696 366.492 83.8693 365.255 85.448L360.967 81.16C362.972 78.984 365.127 77.3627 367.431 76.296C369.777 75.2293 372.295 74.696 374.983 74.696C377.543 74.696 379.761 75.1227 381.639 75.976C383.516 76.8293 384.967 78.088 385.991 79.752C387.015 81.3733 387.527 83.3573 387.527 85.704V109H381.575ZM371.527 109.64C369.351 109.64 367.409 109.213 365.703 108.36C363.996 107.507 362.631 106.333 361.607 104.84C360.625 103.304 360.135 101.512 360.135 99.464C360.135 97.672 360.455 96.0933 361.095 94.728C361.735 93.3627 362.673 92.232 363.911 91.336C365.191 90.44 366.769 89.7573 368.647 89.288C370.567 88.8187 372.764 88.584 375.239 88.584H384.583L384.007 93.832H374.407C373.127 93.832 371.975 93.96 370.951 94.216C369.969 94.4293 369.116 94.792 368.391 95.304C367.708 95.7733 367.196 96.3493 366.855 97.032C366.513 97.672 366.343 98.44 366.343 99.336C366.343 100.275 366.577 101.107 367.047 101.832C367.516 102.515 368.156 103.048 368.967 103.432C369.777 103.816 370.716 104.008 371.783 104.008C373.319 104.008 374.769 103.752 376.135 103.24C377.543 102.685 378.78 101.939 379.847 101C380.956 100.061 381.809 99.016 382.407 97.864L383.943 102.152C383.047 103.645 381.937 104.947 380.615 106.056C379.292 107.165 377.863 108.04 376.327 108.68C374.791 109.32 373.191 109.64 371.527 109.64ZM395.858 109V75.4H402.45V82.312L401.298 83.08C401.725 81.5867 402.557 80.2213 403.794 78.984C405.031 77.704 406.503 76.68 408.21 75.912C409.917 75.1013 411.666 74.696 413.458 74.696C416.018 74.696 418.151 75.208 419.858 76.232C421.565 77.2133 422.845 78.728 423.698 80.776C424.551 82.824 424.978 85.4053 424.978 88.52V109H418.386V88.968C418.386 87.048 418.13 85.4693 417.618 84.232C417.106 82.952 416.317 82.0347 415.25 81.48C414.183 80.8827 412.861 80.6267 411.282 80.712C410.002 80.712 408.829 80.9253 407.762 81.352C406.695 81.736 405.757 82.2907 404.946 83.016C404.178 83.7413 403.559 84.5947 403.09 85.576C402.663 86.5147 402.45 87.5387 402.45 88.648V109H399.186C398.631 109 398.077 109 397.522 109C396.967 109 396.413 109 395.858 109ZM448.193 109.64C445.078 109.64 442.283 108.872 439.809 107.336C437.377 105.8 435.435 103.709 433.985 101.064C432.577 98.4187 431.873 95.4533 431.873 92.168C431.873 88.8827 432.577 85.9173 433.985 83.272C435.435 80.6267 437.377 78.536 439.809 77C442.283 75.464 445.078 74.696 448.193 74.696C451.179 74.696 453.889 75.3147 456.321 76.552C458.795 77.7467 460.673 79.3893 461.953 81.48L458.305 85.96C457.622 84.9787 456.747 84.0827 455.681 83.272C454.614 82.4613 453.483 81.8213 452.289 81.352C451.094 80.8827 449.942 80.648 448.833 80.648C446.785 80.648 444.95 81.16 443.329 82.184C441.75 83.1653 440.491 84.5307 439.553 86.28C438.614 88.0293 438.145 89.992 438.145 92.168C438.145 94.344 438.635 96.3067 439.617 98.056C440.598 99.7627 441.899 101.128 443.521 102.152C445.142 103.176 446.934 103.688 448.897 103.688C450.049 103.688 451.158 103.496 452.225 103.112C453.334 102.728 454.401 102.152 455.425 101.384C456.449 100.616 457.409 99.6773 458.305 98.568L461.953 103.048C460.587 104.968 458.625 106.547 456.065 107.784C453.547 109.021 450.923 109.64 448.193 109.64ZM483.851 109.64C480.395 109.64 477.323 108.915 474.635 107.464C471.989 105.971 469.899 103.944 468.363 101.384C466.869 98.824 466.123 95.88 466.123 92.552C466.123 89.9067 466.549 87.496 467.403 85.32C468.256 83.144 469.429 81.2667 470.923 79.688C472.459 78.0667 474.272 76.8293 476.363 75.976C478.496 75.08 480.8 74.632 483.275 74.632C485.451 74.632 487.477 75.0587 489.355 75.912C491.232 76.7227 492.853 77.8533 494.219 79.304C495.627 80.7547 496.693 82.4827 497.419 84.488C498.187 86.4507 498.549 88.6053 498.507 90.952L498.443 93.768H470.987L469.515 88.52H492.747L491.787 89.608V88.072C491.659 86.664 491.189 85.4053 490.379 84.296C489.568 83.1867 488.544 82.312 487.307 81.672C486.069 81.032 484.725 80.712 483.275 80.712C480.971 80.712 479.029 81.16 477.451 82.056C475.872 82.9093 474.677 84.1893 473.867 85.896C473.056 87.56 472.651 89.6293 472.651 92.104C472.651 94.4507 473.141 96.4987 474.123 98.248C475.104 99.9547 476.491 101.277 478.283 102.216C480.075 103.155 482.144 103.624 484.491 103.624C486.155 103.624 487.691 103.347 489.099 102.792C490.549 102.237 492.107 101.235 493.771 99.784L497.099 104.456C496.075 105.48 494.816 106.376 493.323 107.144C491.872 107.912 490.315 108.531 488.651 109C487.029 109.427 485.429 109.64 483.851 109.64Z" fill="white"/>
</g>
</svg>
