<svg width="1328" height="320" viewBox="0 0 1328 320" fill="none" xmlns="http://www.w3.org/2000/svg">
<rect width="1328" height="320" fill="#323232"/>
<mask id="mask0_105_56" style="mask-type:alpha" maskUnits="userSpaceOnUse" x="0" y="0" width="1328" height="320">
<path d="M1328 0H0V320H1328V0Z" fill="#3835CB"/>
</mask>
<g mask="url(#mask0_105_56)">
<path d="M214.755 210.338C-21.1273 113.962 -118.019 275.593 -136.979 368.456V379.75L-162.518 495.515L1539.27 463.515C1538.5 402.025 1512.11 265.303 1412.74 210.338C1313.37 155.374 1132.98 292.848 1055.2 368.456C873.338 355.907 450.638 306.715 214.755 210.338Z" fill="#3936CC"/>
<path d="M1198.43 30.1422C1226.29 75.3187 1295.94 91.0049 1327.28 93.201V-30.0931C1275.82 -30.7205 1178 -19.5519 1198.43 30.1422Z" fill="#3936CC"/>
<path d="M241.544 215V125.4H279.688C284.808 125.4 289.501 126.68 293.768 129.24C298.12 131.715 301.576 135.128 304.136 139.48C306.696 143.747 307.976 148.568 307.976 153.944C307.976 158.808 306.696 163.331 304.136 167.512C301.576 171.693 298.163 175.064 293.896 177.624C289.629 180.099 284.893 181.336 279.688 181.336H255.368V215H241.544ZM294.792 215L272.008 174.552L286.216 171.352L311.56 215.128L294.792 215ZM255.368 168.024H280.968C283.443 168.024 285.661 167.427 287.624 166.232C289.587 164.952 291.123 163.245 292.232 161.112C293.341 158.893 293.896 156.461 293.896 153.816C293.896 150.829 293.171 148.227 291.72 146.008C290.355 143.704 288.392 141.912 285.832 140.632C283.357 139.352 280.541 138.712 277.384 138.712H255.368V168.024ZM356.076 216.28C349.164 216.28 343.02 214.829 337.644 211.928C332.353 208.941 328.172 204.888 325.1 199.768C322.113 194.648 320.62 188.76 320.62 182.104C320.62 176.813 321.473 171.992 323.18 167.64C324.887 163.288 327.233 159.533 330.22 156.376C333.292 153.133 336.919 150.659 341.1 148.952C345.367 147.16 349.975 146.264 354.924 146.264C359.276 146.264 363.329 147.117 367.084 148.824C370.839 150.445 374.081 152.707 376.812 155.608C379.628 158.509 381.761 161.965 383.212 165.976C384.748 169.901 385.473 174.211 385.388 178.904L385.26 184.536H330.348L327.404 174.04H373.868L371.948 176.216V173.144C371.692 170.328 370.753 167.811 369.132 165.592C367.511 163.373 365.463 161.624 362.988 160.344C360.513 159.064 357.825 158.424 354.924 158.424C350.316 158.424 346.433 159.32 343.276 161.112C340.119 162.819 337.729 165.379 336.108 168.792C334.487 172.12 333.676 176.259 333.676 181.208C333.676 185.901 334.657 189.997 336.62 193.496C338.583 196.909 341.356 199.555 344.94 201.432C348.524 203.309 352.663 204.248 357.356 204.248C360.684 204.248 363.756 203.693 366.572 202.584C369.473 201.475 372.588 199.469 375.916 196.568L382.572 205.912C380.524 207.96 378.007 209.752 375.02 211.288C372.119 212.824 369.004 214.061 365.676 215C362.433 215.853 359.233 216.28 356.076 216.28ZM439.524 215V171.224C439.524 167.469 438.159 164.44 435.428 162.136C432.783 159.747 429.412 158.552 425.316 158.552C421.561 158.552 418.148 159.32 415.076 160.856C412.089 162.392 409.359 164.739 406.884 167.896L398.308 159.32C402.319 154.968 406.628 151.725 411.236 149.592C415.929 147.459 420.964 146.392 426.34 146.392C431.46 146.392 435.897 147.245 439.652 148.952C443.407 150.659 446.308 153.176 448.356 156.504C450.404 159.747 451.428 163.715 451.428 168.408V215H439.524ZM419.428 216.28C415.076 216.28 411.193 215.427 407.78 213.72C404.367 212.013 401.636 209.667 399.588 206.68C397.625 203.608 396.644 200.024 396.644 195.928C396.644 192.344 397.284 189.187 398.564 186.456C399.844 183.725 401.721 181.464 404.196 179.672C406.756 177.88 409.913 176.515 413.668 175.576C417.508 174.637 421.903 174.168 426.852 174.168H445.54L444.388 184.664H425.188C422.628 184.664 420.324 184.92 418.276 185.432C416.313 185.859 414.607 186.584 413.156 187.608C411.791 188.547 410.767 189.699 410.084 191.064C409.401 192.344 409.06 193.88 409.06 195.672C409.06 197.549 409.529 199.213 410.468 200.664C411.407 202.029 412.687 203.096 414.308 203.864C415.929 204.632 417.807 205.016 419.94 205.016C423.012 205.016 425.913 204.504 428.644 203.48C431.46 202.371 433.935 200.877 436.068 199C438.287 197.123 439.993 195.032 441.188 192.728L444.26 201.304C442.468 204.291 440.249 206.893 437.604 209.112C434.959 211.331 432.1 213.08 429.028 214.36C425.956 215.64 422.756 216.28 419.428 216.28ZM496.635 216.28C490.406 216.28 484.816 214.744 479.867 211.672C475.003 208.6 471.12 204.419 468.219 199.128C465.403 193.837 463.995 187.907 463.995 181.336C463.995 174.765 465.403 168.835 468.219 163.544C471.12 158.253 475.003 154.072 479.867 151C484.816 147.928 490.406 146.392 496.635 146.392C502.608 146.392 508.027 147.629 512.891 150.104C517.84 152.493 521.595 155.779 524.155 159.96L516.859 168.92C515.494 166.957 513.744 165.165 511.611 163.544C509.478 161.923 507.216 160.643 504.827 159.704C502.438 158.765 500.134 158.296 497.915 158.296C493.819 158.296 490.15 159.32 486.907 161.368C483.75 163.331 481.232 166.061 479.355 169.56C477.478 173.059 476.539 176.984 476.539 181.336C476.539 185.688 477.52 189.613 479.483 193.112C481.446 196.525 484.048 199.256 487.291 201.304C490.534 203.352 494.118 204.376 498.043 204.376C500.347 204.376 502.566 203.992 504.699 203.224C506.918 202.456 509.051 201.304 511.099 199.768C513.147 198.232 515.067 196.355 516.859 194.136L524.155 203.096C521.424 206.936 517.499 210.093 512.379 212.568C507.344 215.043 502.096 216.28 496.635 216.28ZM544.911 215V130.648H558.095V215H544.911ZM530.959 160.6V147.8H573.711V160.6H530.959ZM624.919 215V125.4H638.743V215H624.919ZM631.063 176.856V163.544H677.271V176.856H631.063ZM631.063 138.712V125.4H683.031V138.712H631.063ZM700.767 215V147.8H713.951V215H700.767ZM707.167 132.952C704.351 132.952 702.175 132.227 700.639 130.776C699.103 129.325 698.335 127.277 698.335 124.632C698.335 122.157 699.103 120.152 700.639 118.616C702.26 117.08 704.436 116.312 707.167 116.312C709.983 116.312 712.159 117.037 713.695 118.488C715.231 119.939 715.999 121.987 715.999 124.632C715.999 127.107 715.188 129.112 713.567 130.648C712.031 132.184 709.898 132.952 707.167 132.952ZM734.216 215V147.8H747.4V161.624L745.096 163.16C745.949 160.173 747.613 157.443 750.088 154.968C752.563 152.408 755.507 150.36 758.92 148.824C762.333 147.203 765.832 146.392 769.416 146.392C774.536 146.392 778.803 147.416 782.216 149.464C785.629 151.427 788.189 154.456 789.896 158.552C791.603 162.648 792.456 167.811 792.456 174.04V215H779.272V174.936C779.272 171.096 778.76 167.939 777.736 165.464C776.712 162.904 775.133 161.069 773 159.96C770.867 158.765 768.221 158.253 765.064 158.424C762.504 158.424 760.157 158.851 758.024 159.704C755.891 160.472 754.013 161.581 752.392 163.032C750.856 164.483 749.619 166.189 748.68 168.152C747.827 170.029 747.4 172.077 747.4 174.296V215H740.872C739.763 215 738.653 215 737.544 215C736.435 215 735.325 215 734.216 215ZM850.149 215V171.224C850.149 167.469 848.784 164.44 846.053 162.136C843.408 159.747 840.037 158.552 835.941 158.552C832.186 158.552 828.773 159.32 825.701 160.856C822.714 162.392 819.984 164.739 817.509 167.896L808.933 159.32C812.944 154.968 817.253 151.725 821.861 149.592C826.554 147.459 831.589 146.392 836.965 146.392C842.085 146.392 846.522 147.245 850.277 148.952C854.032 150.659 856.933 153.176 858.981 156.504C861.029 159.747 862.053 163.715 862.053 168.408V215H850.149ZM830.053 216.28C825.701 216.28 821.818 215.427 818.405 213.72C814.992 212.013 812.261 209.667 810.213 206.68C808.25 203.608 807.269 200.024 807.269 195.928C807.269 192.344 807.909 189.187 809.189 186.456C810.469 183.725 812.346 181.464 814.821 179.672C817.381 177.88 820.538 176.515 824.293 175.576C828.133 174.637 832.528 174.168 837.477 174.168H856.165L855.013 184.664H835.813C833.253 184.664 830.949 184.92 828.901 185.432C826.938 185.859 825.232 186.584 823.781 187.608C822.416 188.547 821.392 189.699 820.709 191.064C820.026 192.344 819.685 193.88 819.685 195.672C819.685 197.549 820.154 199.213 821.093 200.664C822.032 202.029 823.312 203.096 824.933 203.864C826.554 204.632 828.432 205.016 830.565 205.016C833.637 205.016 836.538 204.504 839.269 203.48C842.085 202.371 844.56 200.877 846.693 199C848.912 197.123 850.618 195.032 851.813 192.728L854.885 201.304C853.093 204.291 850.874 206.893 848.229 209.112C845.584 211.331 842.725 213.08 839.653 214.36C836.581 215.64 833.381 216.28 830.053 216.28ZM878.716 215V147.8H891.9V161.624L889.596 163.16C890.449 160.173 892.113 157.443 894.588 154.968C897.063 152.408 900.007 150.36 903.42 148.824C906.833 147.203 910.332 146.392 913.916 146.392C919.036 146.392 923.303 147.416 926.716 149.464C930.129 151.427 932.689 154.456 934.396 158.552C936.103 162.648 936.956 167.811 936.956 174.04V215H923.772V174.936C923.772 171.096 923.26 167.939 922.236 165.464C921.212 162.904 919.633 161.069 917.5 159.96C915.367 158.765 912.721 158.253 909.564 158.424C907.004 158.424 904.657 158.851 902.524 159.704C900.391 160.472 898.513 161.581 896.892 163.032C895.356 164.483 894.119 166.189 893.18 168.152C892.327 170.029 891.9 172.077 891.9 174.296V215H885.372C884.263 215 883.153 215 882.044 215C880.935 215 879.825 215 878.716 215ZM983.385 216.28C977.156 216.28 971.566 214.744 966.617 211.672C961.753 208.6 957.87 204.419 954.969 199.128C952.153 193.837 950.745 187.907 950.745 181.336C950.745 174.765 952.153 168.835 954.969 163.544C957.87 158.253 961.753 154.072 966.617 151C971.566 147.928 977.156 146.392 983.385 146.392C989.358 146.392 994.777 147.629 999.641 150.104C1004.59 152.493 1008.35 155.779 1010.91 159.96L1003.61 168.92C1002.24 166.957 1000.49 165.165 998.361 163.544C996.228 161.923 993.966 160.643 991.577 159.704C989.188 158.765 986.884 158.296 984.665 158.296C980.569 158.296 976.9 159.32 973.657 161.368C970.5 163.331 967.982 166.061 966.105 169.56C964.228 173.059 963.289 176.984 963.289 181.336C963.289 185.688 964.27 189.613 966.233 193.112C968.196 196.525 970.798 199.256 974.041 201.304C977.284 203.352 980.868 204.376 984.793 204.376C987.097 204.376 989.316 203.992 991.449 203.224C993.668 202.456 995.801 201.304 997.849 199.768C999.897 198.232 1001.82 196.355 1003.61 194.136L1010.91 203.096C1008.17 206.936 1004.25 210.093 999.129 212.568C994.094 215.043 988.846 216.28 983.385 216.28ZM1054.7 216.28C1047.79 216.28 1041.65 214.829 1036.27 211.928C1030.98 208.941 1026.8 204.888 1023.73 199.768C1020.74 194.648 1019.25 188.76 1019.25 182.104C1019.25 176.813 1020.1 171.992 1021.81 167.64C1023.51 163.288 1025.86 159.533 1028.85 156.376C1031.92 153.133 1035.54 150.659 1039.73 148.952C1043.99 147.16 1048.6 146.264 1053.55 146.264C1057.9 146.264 1061.95 147.117 1065.71 148.824C1069.46 150.445 1072.71 152.707 1075.44 155.608C1078.25 158.509 1080.39 161.965 1081.84 165.976C1083.37 169.901 1084.1 174.211 1084.01 178.904L1083.89 184.536H1028.97L1026.03 174.04H1072.49L1070.57 176.216V173.144C1070.32 170.328 1069.38 167.811 1067.76 165.592C1066.14 163.373 1064.09 161.624 1061.61 160.344C1059.14 159.064 1056.45 158.424 1053.55 158.424C1048.94 158.424 1045.06 159.32 1041.9 161.112C1038.74 162.819 1036.35 165.379 1034.73 168.792C1033.11 172.12 1032.3 176.259 1032.3 181.208C1032.3 185.901 1033.28 189.997 1035.25 193.496C1037.21 196.909 1039.98 199.555 1043.57 201.432C1047.15 203.309 1051.29 204.248 1055.98 204.248C1059.31 204.248 1062.38 203.693 1065.2 202.584C1068.1 201.475 1071.21 199.469 1074.54 196.568L1081.2 205.912C1079.15 207.96 1076.63 209.752 1073.65 211.288C1070.74 212.824 1067.63 214.061 1064.3 215C1061.06 215.853 1057.86 216.28 1054.7 216.28Z" fill="white"/>
</g>
</svg>
