<svg width="44" height="44" viewBox="0 0 44 44" fill="none" xmlns="http://www.w3.org/2000/svg">
<circle cx="22" cy="22" r="22" fill="url(#paint0_linear_9_46)"/>
<path d="M35.3442 18.7525L34.0583 17.9925L22.4852 11.0829H22.3437C22.2649 11.0471 22.1831 11.0193 22.0994 11H21.8551H21.6236C21.5358 11.0193 21.4497 11.0471 21.3664 11.0829H21.225L9.65189 17.9925C9.45399 18.113 9.28938 18.2878 9.17486 18.499C9.06034 18.7102 9 18.9503 9 19.1947C9 19.4392 9.06034 19.6793 9.17486 19.8905C9.28938 20.1017 9.45399 20.2765 9.65189 20.397L12.8538 22.304V28.8543C12.8538 29.9538 13.2602 31.0083 13.9837 31.7857C14.7071 32.5632 15.6884 33 16.7115 33H26.9987C28.0218 33 29.003 32.5632 29.7265 31.7857C30.45 31.0083 30.8564 29.9538 30.8564 28.8543V22.304L33.4282 20.7563V24.7085C33.4282 25.075 33.5637 25.4265 33.8048 25.6857C34.046 25.9449 34.3731 26.0905 34.7141 26.0905C35.0551 26.0905 35.3822 25.9449 35.6234 25.6857C35.8645 25.4265 36 25.075 36 24.7085V19.9548C35.9996 19.7099 35.9387 19.4695 35.8234 19.2583C35.7082 19.047 35.5428 18.8725 35.3442 18.7525ZM28.2846 28.8543C28.2846 29.2208 28.1491 29.5723 27.908 29.8314C27.6668 30.0906 27.3397 30.2362 26.9987 30.2362H16.7115C16.3704 30.2362 16.0434 30.0906 15.8022 29.8314C15.5611 29.5723 15.4256 29.2208 15.4256 28.8543V23.8379L21.225 27.2927L21.4179 27.3756H21.5336C21.6403 27.3901 21.7484 27.3901 21.8551 27.3756C21.9618 27.3901 22.0698 27.3901 22.1766 27.3756H22.2923C22.3606 27.3602 22.4258 27.3321 22.4852 27.2927L28.2846 23.8379V28.8543ZM21.8551 24.5151L12.9309 19.1809L21.8551 13.8467L30.7792 19.1809L21.8551 24.5151Z" fill="white"/>
<defs>
<linearGradient id="paint0_linear_9_46" x1="-1.67638e-07" y1="5.5" x2="53" y2="28" gradientUnits="userSpaceOnUse">
<stop offset="0.109375" stop-color="#1D30DD"/>
<stop offset="0.744792" stop-color="#9634E3" stop-opacity="0.92"/>
<stop offset="1" stop-color="#9634E3" stop-opacity="0.92"/>
</linearGradient>
</defs>
</svg>
