<svg width="44" height="44" viewBox="0 0 44 44" fill="none" xmlns="http://www.w3.org/2000/svg">
<circle cx="22" cy="22" r="22" fill="url(#paint0_linear_3_31)"/>
<path d="M29 13C28.7348 13 28.4804 13.1054 28.2929 13.2929C28.1054 13.4804 28 13.7348 28 14V19.46L27 20.13V14C27 13.7348 26.8946 13.4804 26.7071 13.2929C26.5196 13.1054 26.2652 13 26 13C25.7348 13 25.4804 13.1054 25.2929 13.2929C25.1054 13.4804 25 13.7348 25 14V20.13L24 19.46V14C24 13.7348 23.8946 13.4804 23.7071 13.2929C23.5196 13.1054 23.2652 13 23 13C22.7348 13 22.4804 13.1054 22.2929 13.2929C22.1054 13.4804 22 13.7348 22 14V20C22.0009 20.1647 22.0424 20.3267 22.1209 20.4715C22.1994 20.6162 22.3124 20.7394 22.45 20.83L25 22.54V32C25 32.2652 25.1054 32.5196 25.2929 32.7071C25.4804 32.8946 25.7348 33 26 33C26.2652 33 26.5196 32.8946 26.7071 32.7071C26.8946 32.5196 27 32.2652 27 32V22.54L29.55 20.83C29.6876 20.7394 29.8006 20.6162 29.8791 20.4715C29.9576 20.3267 29.9991 20.1647 30 20V14C30 13.7348 29.8946 13.4804 29.7071 13.2929C29.5196 13.1054 29.2652 13 29 13ZM19 13C17.6739 13 16.4021 13.5268 15.4645 14.4645C14.5268 15.4021 14 16.6739 14 18V24C14 24.2652 14.1054 24.5196 14.2929 24.7071C14.4804 24.8946 14.7348 25 15 25H18V32C18 32.2652 18.1054 32.5196 18.2929 32.7071C18.4804 32.8946 18.7348 33 19 33C19.2652 33 19.5196 32.8946 19.7071 32.7071C19.8946 32.5196 20 32.2652 20 32V14C20 13.7348 19.8946 13.4804 19.7071 13.2929C19.5196 13.1054 19.2652 13 19 13ZM18 23H16V18C15.9997 17.3793 16.1919 16.7739 16.5501 16.267C16.9083 15.7602 17.4148 15.3769 18 15.17V23Z" fill="white"/>
<defs>
<linearGradient id="paint0_linear_3_31" x1="-8.5" y1="19" x2="49" y2="36" gradientUnits="userSpaceOnUse">
<stop stop-color="#FF763C"/>
<stop offset="1" stop-color="#F5C829"/>
</linearGradient>
</defs>
</svg>
