<svg width="44" height="44" viewBox="0 0 44 44" fill="none" xmlns="http://www.w3.org/2000/svg">
<circle cx="22" cy="22" r="22" fill="url(#paint0_linear_3_24)"/>
<path d="M34.7 20.9998H31.45C31.278 21.0005 31.1079 21.0345 30.9494 21.0997C30.791 21.165 30.6474 21.2603 30.527 21.3801L28.915 23.0152L25.275 18.9718C25.1534 18.8451 25.0064 18.7442 24.8432 18.6751C24.68 18.6061 24.5039 18.5705 24.326 18.5705C24.1481 18.5705 23.9721 18.6061 23.8088 18.6751C23.6456 18.7442 23.4986 18.8451 23.377 18.9718L21.167 21.1266H19.1C18.7552 21.1266 18.4246 21.2601 18.1808 21.4978C17.937 21.7355 17.8 22.0579 17.8 22.3941C17.8 22.7303 17.937 23.0527 18.1808 23.2904C18.4246 23.5281 18.7552 23.6616 19.1 23.6616H21.7C21.8711 23.6626 22.0407 23.6306 22.1991 23.5675C22.3575 23.5045 22.5015 23.4115 22.623 23.294L24.3 21.5956L27.94 25.639C28.0574 25.7695 28.2011 25.8751 28.3621 25.9492C28.5231 26.0233 28.698 26.0644 28.876 26.0699C29.0471 26.0709 29.2167 26.0389 29.3751 25.9759C29.5335 25.9128 29.6775 25.8198 29.799 25.7024L32.009 23.5349H34.7C35.0448 23.5349 35.3754 23.4013 35.6192 23.1636C35.863 22.9259 36 22.6035 36 22.2673C36 21.9312 35.863 21.6088 35.6192 21.3711C35.3754 21.1334 35.0448 20.9998 34.7 20.9998ZM25.093 27.7177L22.623 30.126C22.5022 30.2449 22.3584 30.3391 22.2 30.4035C22.0415 30.4678 21.8716 30.501 21.7 30.501C21.5284 30.501 21.3585 30.4678 21.2001 30.4035C21.0416 30.3391 20.8979 30.2449 20.777 30.126L14.004 23.5222C13.5583 23.0878 13.2047 22.5721 12.9634 22.0045C12.7222 21.4368 12.598 20.8284 12.598 20.2139C12.598 19.5995 12.7222 18.9911 12.9634 18.4234C13.2047 17.8558 13.5583 17.34 14.004 16.9057C14.9032 16.0318 16.121 15.5411 17.3905 15.5411C18.6601 15.5411 19.8778 16.0318 20.777 16.9057C20.8979 17.0245 21.0416 17.1188 21.2001 17.1831C21.3585 17.2475 21.5284 17.2806 21.7 17.2806C21.8716 17.2806 22.0415 17.2475 22.2 17.1831C22.3584 17.1188 22.5022 17.0245 22.623 16.9057C23.5365 16.0586 24.7489 15.5862 26.0095 15.5862C27.2701 15.5862 28.4825 16.0586 29.396 16.9057C29.6857 17.1918 29.9388 17.511 30.15 17.8563C30.3393 18.1101 30.6184 18.2864 30.9333 18.3511C31.2482 18.4158 31.5766 18.3643 31.8548 18.2066C32.133 18.0489 32.3413 17.7962 32.4395 17.4973C32.5376 17.1985 32.5185 16.8747 32.386 16.5888C32.0647 16.0685 31.6806 15.5877 31.242 15.1565C30.0083 13.9395 28.3704 13.1907 26.6218 13.0443C24.8732 12.898 23.1284 13.3637 21.7 14.3579C20.5961 13.5826 19.294 13.1197 17.9373 13.0202C16.5807 12.9208 15.2222 13.1888 14.0119 13.7946C12.8016 14.4004 11.7864 15.3204 11.0785 16.4532C10.3705 17.586 9.9973 18.8874 10 20.2139C9.99963 21.1571 10.1913 22.0909 10.564 22.9613C10.9367 23.8316 11.4829 24.6212 12.171 25.2841L18.944 31.8879C19.6753 32.6 20.6665 33 21.7 33C22.7335 33 23.7248 32.6 24.456 31.8879L26.9 29.505C27.1421 29.2675 27.278 28.9462 27.278 28.6113C27.278 28.2765 27.1421 27.9552 26.9 27.7177C26.6576 27.4893 26.3336 27.3616 25.9965 27.3616C25.6594 27.3616 25.3354 27.4893 25.093 27.7177Z" fill="white"/>
<defs>
<linearGradient id="paint0_linear_3_24" x1="-8.5" y1="19" x2="53" y2="28" gradientUnits="userSpaceOnUse">
<stop stop-color="#BF9E2A"/>
<stop offset="1" stop-color="#37AF0D" stop-opacity="0.92"/>
</linearGradient>
</defs>
</svg>
