<svg width="45" height="45" viewBox="0 0 45 45" fill="none" xmlns="http://www.w3.org/2000/svg">
<circle cx="22.0986" cy="22.0986" r="22" fill="url(#paint0_linear_37_2)"/>
<path d="M31.8947 28.6667V29.7778C31.8947 31 30.9 32 29.6842 32H14.2105C12.9837 32 12 31 12 29.7778V14.2222C12 13 12.9837 12 14.2105 12H29.6842C30.9 12 31.8947 13 31.8947 14.2222V15.3333H21.9474C20.7205 15.3333 19.7368 16.3333 19.7368 17.5556V26.4444C19.7368 27.6667 20.7205 28.6667 21.9474 28.6667H31.8947ZM21.9474 26.4444H33V17.5556H21.9474V26.4444ZM26.3684 23.6667C25.4511 23.6667 24.7105 22.9222 24.7105 22C24.7105 21.0778 25.4511 20.3333 26.3684 20.3333C27.2858 20.3333 28.0263 21.0778 28.0263 22C28.0263 22.9222 27.2858 23.6667 26.3684 23.6667Z" fill="white"/>
<defs>
<linearGradient id="paint0_linear_37_2" x1="0.0986328" y1="22.0986" x2="53.0986" y2="28.0986" gradientUnits="userSpaceOnUse">
<stop stop-color="#E83DB8"/>
<stop offset="1" stop-color="#36FFB7"/>
</linearGradient>
</defs>
</svg>
