<svg width="44" height="44" viewBox="0 0 44 44" fill="none" xmlns="http://www.w3.org/2000/svg">
<circle cx="22" cy="22" r="22" fill="url(#paint0_linear_15_2)"/>
<path d="M31.1 14H27.2V12.6667C27.2 11.9594 26.9261 11.2811 26.4385 10.781C25.9509 10.281 25.2896 10 24.6 10H19.4C18.7104 10 18.0491 10.281 17.5615 10.781C17.0739 11.2811 16.8 11.9594 16.8 12.6667V14H12.9C11.8657 14 10.8737 14.4214 10.1423 15.1716C9.41089 15.9217 9 16.9391 9 18V30C9 31.0609 9.41089 32.0783 10.1423 32.8284C10.8737 33.5786 11.8657 34 12.9 34H31.1C32.1343 34 33.1263 33.5786 33.8577 32.8284C34.5891 32.0783 35 31.0609 35 30V18C35 16.9391 34.5891 15.9217 33.8577 15.1716C33.1263 14.4214 32.1343 14 31.1 14ZM19.4 12.6667H24.6V14H19.4V12.6667ZM32.4 30C32.4 30.3536 32.263 30.6928 32.0192 30.9428C31.7754 31.1929 31.4448 31.3333 31.1 31.3333H12.9C12.5552 31.3333 12.2246 31.1929 11.9808 30.9428C11.737 30.6928 11.6 30.3536 11.6 30V22.52L17.684 24.6667C17.822 24.6859 17.962 24.6859 18.1 24.6667H25.9C26.041 24.664 26.1809 24.6416 26.316 24.6L32.4 22.52V30ZM32.4 19.7067L25.692 22H18.308L11.6 19.7067V18C11.6 17.6464 11.737 17.3072 11.9808 17.0572C12.2246 16.8071 12.5552 16.6667 12.9 16.6667H31.1C31.4448 16.6667 31.7754 16.8071 32.0192 17.0572C32.263 17.3072 32.4 17.6464 32.4 18V19.7067Z" fill="white"/>
<defs>
<linearGradient id="paint0_linear_15_2" x1="-1.67638e-07" y1="5.5" x2="53" y2="28" gradientUnits="userSpaceOnUse">
<stop stop-color="#FF2F2F"/>
<stop offset="1" stop-color="#9634E3" stop-opacity="0.92"/>
</linearGradient>
</defs>
</svg>
