<svg width="44" height="44" viewBox="0 0 44 44" fill="none" xmlns="http://www.w3.org/2000/svg">
<circle cx="22" cy="22" r="22" fill="url(#paint0_linear_8_44)"/>
<path d="M31.1 10H12.9C11.8657 10 10.8737 10.4214 10.1423 11.1716C9.41089 11.9217 9 12.9391 9 14V24.6667C9 25.7275 9.41089 26.7449 10.1423 27.4951C10.8737 28.2452 11.8657 28.6667 12.9 28.6667H20.7V31.3333H15.5C15.1552 31.3333 14.8246 31.4738 14.5808 31.7239C14.337 31.9739 14.2 32.313 14.2 32.6667C14.2 33.0203 14.337 33.3594 14.5808 33.6095C14.8246 33.8595 15.1552 34 15.5 34H28.5C28.8448 34 29.1754 33.8595 29.4192 33.6095C29.663 33.3594 29.8 33.0203 29.8 32.6667C29.8 32.313 29.663 31.9739 29.4192 31.7239C29.1754 31.4738 28.8448 31.3333 28.5 31.3333H23.3V28.6667H31.1C32.1343 28.6667 33.1263 28.2452 33.8577 27.4951C34.5891 26.7449 35 25.7275 35 24.6667V14C35 12.9391 34.5891 11.9217 33.8577 11.1716C33.1263 10.4214 32.1343 10 31.1 10ZM32.4 24.6667C32.4 25.0203 32.263 25.3594 32.0192 25.6095C31.7754 25.8595 31.4448 26 31.1 26H12.9C12.5552 26 12.2246 25.8595 11.9808 25.6095C11.737 25.3594 11.6 25.0203 11.6 24.6667V14C11.6 13.6464 11.737 13.3072 11.9808 13.0572C12.2246 12.8071 12.5552 12.6667 12.9 12.6667H31.1C31.4448 12.6667 31.7754 12.8071 32.0192 13.0572C32.263 13.3072 32.4 13.6464 32.4 14V24.6667Z" fill="white"/>
<defs>
<linearGradient id="paint0_linear_8_44" x1="-1.67638e-07" y1="5.5" x2="53" y2="28" gradientUnits="userSpaceOnUse">
<stop offset="0.109375" stop-color="#1DBADD"/>
<stop offset="0.744792" stop-color="#34E346" stop-opacity="0.92"/>
</linearGradient>
</defs>
</svg>
