<svg width="44" height="44" viewBox="0 0 44 44" fill="none" xmlns="http://www.w3.org/2000/svg">
<circle cx="22" cy="22" r="22" fill="url(#paint0_linear_31_4)"/>
<path d="M22 11H12.9C10.742 11 9 12.8425 9 15.125V26.125C9 28.4075 10.742 30.25 12.9 30.25L11.6 31.625V33H12.9L15.5 30.2087L18.1 30.25V23.375H11.6V13.7225L23.3 13.75V16.5H25.9V15.125C25.9 12.8425 24.158 11 22 11ZM12.9 24.75C13.615 24.75 14.2 25.3687 14.2 26.125C14.2 26.8812 13.615 27.5 12.9 27.5C12.185 27.5 11.6 26.8812 11.6 26.125C11.6 25.3687 12.185 24.75 12.9 24.75ZM33.141 18.7825C32.959 18.2325 32.465 17.875 31.88 17.875H22.533C21.935 17.875 21.454 18.2325 21.259 18.7825L19.4 24.4338L19.413 32.01C19.413 32.5325 19.816 33 20.31 33H21.116C21.61 33 22 32.4775 22 31.955V30.25H32.4V31.955C32.4 32.4775 32.803 33 33.297 33H34.09C34.584 33 34.987 32.5325 34.987 32.01L35 30.1262V24.4338L33.141 18.7825ZM22.533 19.25H31.88L33.219 23.375H21.194L22.533 19.25ZM22 27.5C21.285 27.5 20.7 26.8812 20.7 26.125C20.7 25.3687 21.285 24.75 22 24.75C22.715 24.75 23.3 25.3687 23.3 26.125C23.3 26.8812 22.715 27.5 22 27.5ZM32.4 27.5C31.685 27.5 31.1 26.8812 31.1 26.125C31.1 25.3687 31.685 24.75 32.4 24.75C33.115 24.75 33.7 25.3687 33.7 26.125C33.7 26.8812 33.115 27.5 32.4 27.5Z" fill="white"/>
<defs>
<linearGradient id="paint0_linear_31_4" x1="-1.67638e-07" y1="5.5" x2="53" y2="28" gradientUnits="userSpaceOnUse">
<stop stop-color="#FF28C3" stop-opacity="0.92"/>
<stop offset="1" stop-color="#E59BFF"/>
</linearGradient>
</defs>
</svg>
