<svg width="44" height="44" viewBox="0 0 44 44" fill="none" xmlns="http://www.w3.org/2000/svg">
<circle cx="22" cy="22" r="22" fill="url(#paint0_linear_15_10)"/>
<path d="M33.6667 14.9267C33.6676 14.2153 33.4574 13.5196 33.0627 12.9277C32.6679 12.3359 32.1063 11.8746 31.4491 11.6022C30.7919 11.3298 30.0686 11.2587 29.371 11.3977C28.6733 11.5368 28.0326 11.8798 27.53 12.3833L24.2517 15.6617L16.68 13.1417C16.4784 13.0783 16.2634 13.0709 16.0579 13.1202C15.8524 13.1695 15.6642 13.2737 15.5133 13.4217L12.7367 16.175C12.6051 16.3081 12.5075 16.4709 12.4521 16.6496C12.3966 16.8284 12.385 17.0178 12.4182 17.202C12.4514 17.3862 12.5283 17.5597 12.6427 17.7078C12.757 17.856 12.9053 17.9745 13.075 18.0533L19.1183 20.795L16.085 23.8283L14.09 22.825C13.8746 22.7084 13.628 22.6626 13.3851 22.694C13.1422 22.7254 12.9153 22.8325 12.7367 23L10.6717 25.1117C10.4544 25.3303 10.3324 25.6259 10.3324 25.9342C10.3324 26.2424 10.4544 26.5381 10.6717 26.7567L18.2433 34.3283C18.4619 34.5456 18.7576 34.6676 19.0658 34.6676C19.374 34.6676 19.6697 34.5456 19.8883 34.3283L22 32.2633C22.1751 32.09 22.2908 31.8658 22.3307 31.6227C22.3705 31.3796 22.3323 31.1301 22.2217 30.91L21.2183 28.915L24.2517 25.8817L26.9933 31.925C27.0722 32.0947 27.1906 32.243 27.3388 32.3573C27.487 32.4717 27.6605 32.5486 27.8447 32.5818C28.0288 32.615 28.2183 32.6034 28.397 32.5479C28.5758 32.4925 28.7386 32.3949 28.8717 32.2633L31.625 29.51C31.773 29.3591 31.8771 29.1709 31.9265 28.9654C31.9758 28.7599 31.9684 28.5449 31.905 28.3433L29.385 20.7717L32.6167 17.47C32.9518 17.137 33.2172 16.7406 33.3974 16.3039C33.5777 15.8673 33.6692 15.3991 33.6667 14.9267ZM30.96 15.825L27.18 19.605C27.032 19.7559 26.9278 19.9441 26.8785 20.1496C26.8292 20.3551 26.8366 20.5701 26.9 20.7717L29.42 28.3317L28.37 29.3817L25.6283 23.35C25.5505 23.1787 25.4324 23.0288 25.2841 22.913C25.1358 22.7972 24.9617 22.719 24.7767 22.685C24.5901 22.6509 24.398 22.6629 24.2171 22.7198C24.0361 22.7767 23.8718 22.8769 23.7383 23.0117L18.9317 27.865C18.7591 28.0374 18.6449 28.2595 18.6051 28.5002C18.5654 28.7409 18.6021 28.9879 18.71 29.2067L19.6667 31.1667L19.0133 31.82L13.145 25.94L13.8333 25.3333L15.8283 26.3367C16.0471 26.4446 16.2941 26.4813 16.5348 26.4415C16.7755 26.4018 16.9976 26.2876 17.17 26.115L22 21.2617C22.1341 21.1287 22.2338 20.9651 22.2907 20.785C22.3476 20.605 22.36 20.4138 22.3267 20.2279C22.2934 20.042 22.2155 19.867 22.0997 19.7178C21.9838 19.5687 21.8335 19.4499 21.6617 19.3717L15.5833 16.63L16.6333 15.58L24.1933 18.1C24.3949 18.1634 24.6099 18.1708 24.8154 18.1215C25.0209 18.0721 25.2091 17.968 25.36 17.82L29.14 14.04C29.2563 13.9211 29.3951 13.8267 29.5484 13.7622C29.7016 13.6977 29.8662 13.6645 30.0325 13.6645C30.1988 13.6645 30.3634 13.6977 30.5166 13.7622C30.6699 13.8267 30.8087 13.9211 30.925 14.04C31.0467 14.1528 31.1429 14.2902 31.2073 14.4431C31.2717 14.596 31.3027 14.7608 31.2983 14.9267C31.3047 15.0914 31.278 15.2557 31.2199 15.41C31.1618 15.5643 31.0734 15.7054 30.96 15.825Z" fill="white"/>
<defs>
<linearGradient id="paint0_linear_15_10" x1="-1.67638e-07" y1="5.5" x2="53" y2="28" gradientUnits="userSpaceOnUse">
<stop stop-color="#2FF3FF"/>
<stop offset="1" stop-color="#5218F4" stop-opacity="0.92"/>
</linearGradient>
</defs>
</svg>
